<svg xmlns="http://www.w3.org/2000/svg"  viewBox="0 0 48 48" width="48px" height="48px"><path fill="#33afec" d="M6,13v7h25.2l6.4-7H6z"/><path fill="#0084d7" d="M6,22v7h17.1l6.3-7H6z"/><path fill="#0262b8" d="M6,31v2c0,3.3,2.7,6,6,6h2l7.3-8H6z"/><path fill="#0084d7" d="M42,13h-4.4l-6.4,7H42V13z"/><path fill="#027ad4" d="M42,22H29.4l-6.3,7H42V22z"/><path fill="#0553a4" d="M21.3,31L14,39h13v7l7-7h2c3.3,0,6-2.7,6-6v-2H21.3z"/><path fill="#33afec" d="M42,11V9c0-0.3,0-0.6-0.1-0.8l0,0L39.4,11l0,0H42z"/><path fill="#54daff" d="M36,3H12C8.7,3,6,5.7,6,9v2h33.4L42,8.2C41.5,5.3,39,3,36,3z"/></svg>