<svg xmlns="http://www.w3.org/2000/svg"  viewBox="0 0 48 48" width="48px" height="48px"><path fill="#727d86" d="M32,28.5V39H12V28.5c0-0.276-0.224-0.5-0.5-0.5h-2C9.224,28,9,28.224,9,28.5V41c0,0.552,0.448,1,1,1	h24c0.552,0,1-0.448,1-1V28.5c0-0.276-0.224-0.5-0.5-0.5h-2C32.224,28,32,28.224,32,28.5z"/><rect width="14" height="3" x="15" y="34" fill="#727d86"/><path fill="#89776b" d="M15.081,28.26L29,29.758l-0.321,2.983l-13.92-1.498L15.081,28.26z"/><path fill="#e36001" d="M36.871,6l2.133,13.835l-2.966,0.457L33.905,6.457L36.871,6z"/><path fill="#cc661c" d="M28.47,8.237l6.831,12.218l-2.619,1.465L25.851,9.701L28.47,8.237z"/><path fill="#b66c36" d="M20.501,14.551L32,22.533l-1.711,2.465L18.79,17.016L20.501,14.551z"/><path fill="#9f7151" d="M16.899,21.218l13.173,4.739l-1.016,2.824l-13.173-4.739L16.899,21.218z"/></svg>